<mxfile host="app.diagrams.net" agent="Mozilla/5.0 (Windows NT 10.0; Win64; x64; rv:128.0) Gecko/20100101 Firefox/128.0" version="26.0.10">
  <diagram name="Page-1" id="WBhANGfl5HxbpepdWlrL">
    <mxGraphModel dx="1434" dy="912" grid="1" gridSize="10" guides="1" tooltips="1" connect="1" arrows="1" fold="1" page="1" pageScale="1" pageWidth="1100" pageHeight="850" math="0" shadow="0">
      <root>
        <mxCell id="0" />
        <mxCell id="1" parent="0" />
        <mxCell id="dF0Taw-JzMB2I85L5e73-15" value="Leaderboard:&#xa;TRACK NAME" style="shape=table;startSize=50;container=1;collapsible=0;childLayout=tableLayout;strokeColor=default;fontSize=16;fontStyle=1" vertex="1" parent="1">
          <mxGeometry x="50" y="102" width="1000" height="647" as="geometry" />
        </mxCell>
        <mxCell id="dF0Taw-JzMB2I85L5e73-16" value="" style="shape=tableRow;horizontal=0;startSize=0;swimlaneHead=0;swimlaneBody=0;strokeColor=inherit;top=0;left=0;bottom=0;right=0;collapsible=0;dropTarget=0;fillColor=none;points=[[0,0.5],[1,0.5]];portConstraint=eastwest;fontSize=16;" vertex="1" parent="dF0Taw-JzMB2I85L5e73-15">
          <mxGeometry y="50" width="1000" height="47" as="geometry" />
        </mxCell>
        <mxCell id="dF0Taw-JzMB2I85L5e73-119" value="RANK" style="shape=partialRectangle;html=1;whiteSpace=wrap;connectable=0;strokeColor=inherit;overflow=hidden;fillColor=none;top=0;left=0;bottom=0;right=0;pointerEvents=1;fontSize=16;" vertex="1" parent="dF0Taw-JzMB2I85L5e73-16">
          <mxGeometry width="70" height="47" as="geometry">
            <mxRectangle width="70" height="47" as="alternateBounds" />
          </mxGeometry>
        </mxCell>
        <mxCell id="dF0Taw-JzMB2I85L5e73-108" value="&lt;div&gt;COUNTRY&lt;/div&gt;&lt;div&gt;(flag)&lt;br&gt;&lt;/div&gt;" style="shape=partialRectangle;html=1;whiteSpace=wrap;connectable=0;strokeColor=inherit;overflow=hidden;fillColor=none;top=0;left=0;bottom=0;right=0;pointerEvents=1;fontSize=16;" vertex="1" parent="dF0Taw-JzMB2I85L5e73-16">
          <mxGeometry x="70" width="90" height="47" as="geometry">
            <mxRectangle width="90" height="47" as="alternateBounds" />
          </mxGeometry>
        </mxCell>
        <mxCell id="dF0Taw-JzMB2I85L5e73-17" value="PLAYER NAME" style="shape=partialRectangle;html=1;whiteSpace=wrap;connectable=0;strokeColor=inherit;overflow=hidden;fillColor=none;top=0;left=0;bottom=0;right=0;pointerEvents=1;fontSize=16;" vertex="1" parent="dF0Taw-JzMB2I85L5e73-16">
          <mxGeometry x="160" width="230" height="47" as="geometry">
            <mxRectangle width="230" height="47" as="alternateBounds" />
          </mxGeometry>
        </mxCell>
        <mxCell id="dF0Taw-JzMB2I85L5e73-18" value="VEHICLE NAME" style="shape=partialRectangle;html=1;whiteSpace=wrap;connectable=0;strokeColor=inherit;overflow=hidden;fillColor=none;top=0;left=0;bottom=0;right=0;pointerEvents=1;fontSize=16;" vertex="1" parent="dF0Taw-JzMB2I85L5e73-16">
          <mxGeometry x="390" width="210" height="47" as="geometry">
            <mxRectangle width="210" height="47" as="alternateBounds" />
          </mxGeometry>
        </mxCell>
        <mxCell id="dF0Taw-JzMB2I85L5e73-130" value="&lt;div&gt;DATE&lt;/div&gt;&lt;div&gt;(ISO format)&lt;br&gt;&lt;/div&gt;" style="shape=partialRectangle;html=1;whiteSpace=wrap;connectable=0;strokeColor=inherit;overflow=hidden;fillColor=none;top=0;left=0;bottom=0;right=0;pointerEvents=1;fontSize=16;" vertex="1" parent="dF0Taw-JzMB2I85L5e73-16">
          <mxGeometry x="600" width="190" height="47" as="geometry">
            <mxRectangle width="190" height="47" as="alternateBounds" />
          </mxGeometry>
        </mxCell>
        <mxCell id="dF0Taw-JzMB2I85L5e73-19" value="&lt;div&gt;TIME&lt;/div&gt;&lt;div&gt;(rounded to thousands)&lt;br&gt;&lt;/div&gt;" style="shape=partialRectangle;html=1;whiteSpace=wrap;connectable=0;strokeColor=inherit;overflow=hidden;fillColor=none;top=0;left=0;bottom=0;right=0;pointerEvents=1;fontSize=16;" vertex="1" parent="dF0Taw-JzMB2I85L5e73-16">
          <mxGeometry x="790" width="210" height="47" as="geometry">
            <mxRectangle width="210" height="47" as="alternateBounds" />
          </mxGeometry>
        </mxCell>
        <mxCell id="dF0Taw-JzMB2I85L5e73-20" value="" style="shape=tableRow;horizontal=0;startSize=0;swimlaneHead=0;swimlaneBody=0;strokeColor=inherit;top=0;left=0;bottom=0;right=0;collapsible=0;dropTarget=0;fillColor=none;points=[[0,0.5],[1,0.5]];portConstraint=eastwest;fontSize=16;" vertex="1" parent="dF0Taw-JzMB2I85L5e73-15">
          <mxGeometry y="97" width="1000" height="56" as="geometry" />
        </mxCell>
        <mxCell id="dF0Taw-JzMB2I85L5e73-120" value="1" style="shape=partialRectangle;html=1;whiteSpace=wrap;connectable=0;strokeColor=inherit;overflow=hidden;fillColor=none;top=0;left=0;bottom=0;right=0;pointerEvents=1;fontSize=16;" vertex="1" parent="dF0Taw-JzMB2I85L5e73-20">
          <mxGeometry width="70" height="56" as="geometry">
            <mxRectangle width="70" height="56" as="alternateBounds" />
          </mxGeometry>
        </mxCell>
        <mxCell id="dF0Taw-JzMB2I85L5e73-109" value="US" style="shape=partialRectangle;html=1;whiteSpace=wrap;connectable=0;strokeColor=inherit;overflow=hidden;fillColor=none;top=0;left=0;bottom=0;right=0;pointerEvents=1;fontSize=16;" vertex="1" parent="dF0Taw-JzMB2I85L5e73-20">
          <mxGeometry x="70" width="90" height="56" as="geometry">
            <mxRectangle width="90" height="56" as="alternateBounds" />
          </mxGeometry>
        </mxCell>
        <mxCell id="dF0Taw-JzMB2I85L5e73-21" value="Player 1" style="shape=partialRectangle;html=1;whiteSpace=wrap;connectable=0;strokeColor=inherit;overflow=hidden;fillColor=none;top=0;left=0;bottom=0;right=0;pointerEvents=1;fontSize=16;" vertex="1" parent="dF0Taw-JzMB2I85L5e73-20">
          <mxGeometry x="160" width="230" height="56" as="geometry">
            <mxRectangle width="230" height="56" as="alternateBounds" />
          </mxGeometry>
        </mxCell>
        <mxCell id="dF0Taw-JzMB2I85L5e73-22" value="Vehicle 1" style="shape=partialRectangle;html=1;whiteSpace=wrap;connectable=0;strokeColor=inherit;overflow=hidden;fillColor=none;top=0;left=0;bottom=0;right=0;pointerEvents=1;fontSize=16;" vertex="1" parent="dF0Taw-JzMB2I85L5e73-20">
          <mxGeometry x="390" width="210" height="56" as="geometry">
            <mxRectangle width="210" height="56" as="alternateBounds" />
          </mxGeometry>
        </mxCell>
        <mxCell id="dF0Taw-JzMB2I85L5e73-131" value="2025-02-02" style="shape=partialRectangle;html=1;whiteSpace=wrap;connectable=0;strokeColor=inherit;overflow=hidden;fillColor=none;top=0;left=0;bottom=0;right=0;pointerEvents=1;fontSize=16;" vertex="1" parent="dF0Taw-JzMB2I85L5e73-20">
          <mxGeometry x="600" width="190" height="56" as="geometry">
            <mxRectangle width="190" height="56" as="alternateBounds" />
          </mxGeometry>
        </mxCell>
        <mxCell id="dF0Taw-JzMB2I85L5e73-23" value="1:23.456" style="shape=partialRectangle;html=1;whiteSpace=wrap;connectable=0;strokeColor=inherit;overflow=hidden;fillColor=none;top=0;left=0;bottom=0;right=0;pointerEvents=1;fontSize=16;" vertex="1" parent="dF0Taw-JzMB2I85L5e73-20">
          <mxGeometry x="790" width="210" height="56" as="geometry">
            <mxRectangle width="210" height="56" as="alternateBounds" />
          </mxGeometry>
        </mxCell>
        <mxCell id="dF0Taw-JzMB2I85L5e73-24" value="" style="shape=tableRow;horizontal=0;startSize=0;swimlaneHead=0;swimlaneBody=0;strokeColor=inherit;top=0;left=0;bottom=0;right=0;collapsible=0;dropTarget=0;fillColor=none;points=[[0,0.5],[1,0.5]];portConstraint=eastwest;fontSize=16;" vertex="1" parent="dF0Taw-JzMB2I85L5e73-15">
          <mxGeometry y="153" width="1000" height="55" as="geometry" />
        </mxCell>
        <mxCell id="dF0Taw-JzMB2I85L5e73-121" value="2" style="shape=partialRectangle;html=1;whiteSpace=wrap;connectable=0;strokeColor=inherit;overflow=hidden;fillColor=none;top=0;left=0;bottom=0;right=0;pointerEvents=1;fontSize=16;" vertex="1" parent="dF0Taw-JzMB2I85L5e73-24">
          <mxGeometry width="70" height="55" as="geometry">
            <mxRectangle width="70" height="55" as="alternateBounds" />
          </mxGeometry>
        </mxCell>
        <mxCell id="dF0Taw-JzMB2I85L5e73-110" style="shape=partialRectangle;html=1;whiteSpace=wrap;connectable=0;strokeColor=inherit;overflow=hidden;fillColor=none;top=0;left=0;bottom=0;right=0;pointerEvents=1;fontSize=16;" vertex="1" parent="dF0Taw-JzMB2I85L5e73-24">
          <mxGeometry x="70" width="90" height="55" as="geometry">
            <mxRectangle width="90" height="55" as="alternateBounds" />
          </mxGeometry>
        </mxCell>
        <mxCell id="dF0Taw-JzMB2I85L5e73-25" value="" style="shape=partialRectangle;html=1;whiteSpace=wrap;connectable=0;strokeColor=inherit;overflow=hidden;fillColor=none;top=0;left=0;bottom=0;right=0;pointerEvents=1;fontSize=16;" vertex="1" parent="dF0Taw-JzMB2I85L5e73-24">
          <mxGeometry x="160" width="230" height="55" as="geometry">
            <mxRectangle width="230" height="55" as="alternateBounds" />
          </mxGeometry>
        </mxCell>
        <mxCell id="dF0Taw-JzMB2I85L5e73-26" value="" style="shape=partialRectangle;html=1;whiteSpace=wrap;connectable=0;strokeColor=inherit;overflow=hidden;fillColor=none;top=0;left=0;bottom=0;right=0;pointerEvents=1;fontSize=16;" vertex="1" parent="dF0Taw-JzMB2I85L5e73-24">
          <mxGeometry x="390" width="210" height="55" as="geometry">
            <mxRectangle width="210" height="55" as="alternateBounds" />
          </mxGeometry>
        </mxCell>
        <mxCell id="dF0Taw-JzMB2I85L5e73-132" style="shape=partialRectangle;html=1;whiteSpace=wrap;connectable=0;strokeColor=inherit;overflow=hidden;fillColor=none;top=0;left=0;bottom=0;right=0;pointerEvents=1;fontSize=16;" vertex="1" parent="dF0Taw-JzMB2I85L5e73-24">
          <mxGeometry x="600" width="190" height="55" as="geometry">
            <mxRectangle width="190" height="55" as="alternateBounds" />
          </mxGeometry>
        </mxCell>
        <mxCell id="dF0Taw-JzMB2I85L5e73-27" value="" style="shape=partialRectangle;html=1;whiteSpace=wrap;connectable=0;strokeColor=inherit;overflow=hidden;fillColor=none;top=0;left=0;bottom=0;right=0;pointerEvents=1;fontSize=16;" vertex="1" parent="dF0Taw-JzMB2I85L5e73-24">
          <mxGeometry x="790" width="210" height="55" as="geometry">
            <mxRectangle width="210" height="55" as="alternateBounds" />
          </mxGeometry>
        </mxCell>
        <mxCell id="dF0Taw-JzMB2I85L5e73-28" value="" style="shape=tableRow;horizontal=0;startSize=0;swimlaneHead=0;swimlaneBody=0;strokeColor=inherit;top=0;left=0;bottom=0;right=0;collapsible=0;dropTarget=0;fillColor=none;points=[[0,0.5],[1,0.5]];portConstraint=eastwest;fontSize=16;" vertex="1" parent="dF0Taw-JzMB2I85L5e73-15">
          <mxGeometry y="208" width="1000" height="55" as="geometry" />
        </mxCell>
        <mxCell id="dF0Taw-JzMB2I85L5e73-122" value="3" style="shape=partialRectangle;html=1;whiteSpace=wrap;connectable=0;strokeColor=inherit;overflow=hidden;fillColor=none;top=0;left=0;bottom=0;right=0;pointerEvents=1;fontSize=16;" vertex="1" parent="dF0Taw-JzMB2I85L5e73-28">
          <mxGeometry width="70" height="55" as="geometry">
            <mxRectangle width="70" height="55" as="alternateBounds" />
          </mxGeometry>
        </mxCell>
        <mxCell id="dF0Taw-JzMB2I85L5e73-111" style="shape=partialRectangle;html=1;whiteSpace=wrap;connectable=0;strokeColor=inherit;overflow=hidden;fillColor=none;top=0;left=0;bottom=0;right=0;pointerEvents=1;fontSize=16;" vertex="1" parent="dF0Taw-JzMB2I85L5e73-28">
          <mxGeometry x="70" width="90" height="55" as="geometry">
            <mxRectangle width="90" height="55" as="alternateBounds" />
          </mxGeometry>
        </mxCell>
        <mxCell id="dF0Taw-JzMB2I85L5e73-29" value="" style="shape=partialRectangle;html=1;whiteSpace=wrap;connectable=0;strokeColor=inherit;overflow=hidden;fillColor=none;top=0;left=0;bottom=0;right=0;pointerEvents=1;fontSize=16;" vertex="1" parent="dF0Taw-JzMB2I85L5e73-28">
          <mxGeometry x="160" width="230" height="55" as="geometry">
            <mxRectangle width="230" height="55" as="alternateBounds" />
          </mxGeometry>
        </mxCell>
        <mxCell id="dF0Taw-JzMB2I85L5e73-30" value="" style="shape=partialRectangle;html=1;whiteSpace=wrap;connectable=0;strokeColor=inherit;overflow=hidden;fillColor=none;top=0;left=0;bottom=0;right=0;pointerEvents=1;fontSize=16;" vertex="1" parent="dF0Taw-JzMB2I85L5e73-28">
          <mxGeometry x="390" width="210" height="55" as="geometry">
            <mxRectangle width="210" height="55" as="alternateBounds" />
          </mxGeometry>
        </mxCell>
        <mxCell id="dF0Taw-JzMB2I85L5e73-133" style="shape=partialRectangle;html=1;whiteSpace=wrap;connectable=0;strokeColor=inherit;overflow=hidden;fillColor=none;top=0;left=0;bottom=0;right=0;pointerEvents=1;fontSize=16;" vertex="1" parent="dF0Taw-JzMB2I85L5e73-28">
          <mxGeometry x="600" width="190" height="55" as="geometry">
            <mxRectangle width="190" height="55" as="alternateBounds" />
          </mxGeometry>
        </mxCell>
        <mxCell id="dF0Taw-JzMB2I85L5e73-31" value="" style="shape=partialRectangle;html=1;whiteSpace=wrap;connectable=0;strokeColor=inherit;overflow=hidden;fillColor=none;top=0;left=0;bottom=0;right=0;pointerEvents=1;fontSize=16;" vertex="1" parent="dF0Taw-JzMB2I85L5e73-28">
          <mxGeometry x="790" width="210" height="55" as="geometry">
            <mxRectangle width="210" height="55" as="alternateBounds" />
          </mxGeometry>
        </mxCell>
        <mxCell id="dF0Taw-JzMB2I85L5e73-32" value="" style="shape=tableRow;horizontal=0;startSize=0;swimlaneHead=0;swimlaneBody=0;strokeColor=inherit;top=0;left=0;bottom=0;right=0;collapsible=0;dropTarget=0;fillColor=none;points=[[0,0.5],[1,0.5]];portConstraint=eastwest;fontSize=16;" vertex="1" parent="dF0Taw-JzMB2I85L5e73-15">
          <mxGeometry y="263" width="1000" height="55" as="geometry" />
        </mxCell>
        <mxCell id="dF0Taw-JzMB2I85L5e73-123" value="4" style="shape=partialRectangle;html=1;whiteSpace=wrap;connectable=0;strokeColor=inherit;overflow=hidden;fillColor=none;top=0;left=0;bottom=0;right=0;pointerEvents=1;fontSize=16;" vertex="1" parent="dF0Taw-JzMB2I85L5e73-32">
          <mxGeometry width="70" height="55" as="geometry">
            <mxRectangle width="70" height="55" as="alternateBounds" />
          </mxGeometry>
        </mxCell>
        <mxCell id="dF0Taw-JzMB2I85L5e73-112" style="shape=partialRectangle;html=1;whiteSpace=wrap;connectable=0;strokeColor=inherit;overflow=hidden;fillColor=none;top=0;left=0;bottom=0;right=0;pointerEvents=1;fontSize=16;" vertex="1" parent="dF0Taw-JzMB2I85L5e73-32">
          <mxGeometry x="70" width="90" height="55" as="geometry">
            <mxRectangle width="90" height="55" as="alternateBounds" />
          </mxGeometry>
        </mxCell>
        <mxCell id="dF0Taw-JzMB2I85L5e73-33" value="" style="shape=partialRectangle;html=1;whiteSpace=wrap;connectable=0;strokeColor=inherit;overflow=hidden;fillColor=none;top=0;left=0;bottom=0;right=0;pointerEvents=1;fontSize=16;" vertex="1" parent="dF0Taw-JzMB2I85L5e73-32">
          <mxGeometry x="160" width="230" height="55" as="geometry">
            <mxRectangle width="230" height="55" as="alternateBounds" />
          </mxGeometry>
        </mxCell>
        <mxCell id="dF0Taw-JzMB2I85L5e73-34" value="" style="shape=partialRectangle;html=1;whiteSpace=wrap;connectable=0;strokeColor=inherit;overflow=hidden;fillColor=none;top=0;left=0;bottom=0;right=0;pointerEvents=1;fontSize=16;" vertex="1" parent="dF0Taw-JzMB2I85L5e73-32">
          <mxGeometry x="390" width="210" height="55" as="geometry">
            <mxRectangle width="210" height="55" as="alternateBounds" />
          </mxGeometry>
        </mxCell>
        <mxCell id="dF0Taw-JzMB2I85L5e73-134" style="shape=partialRectangle;html=1;whiteSpace=wrap;connectable=0;strokeColor=inherit;overflow=hidden;fillColor=none;top=0;left=0;bottom=0;right=0;pointerEvents=1;fontSize=16;" vertex="1" parent="dF0Taw-JzMB2I85L5e73-32">
          <mxGeometry x="600" width="190" height="55" as="geometry">
            <mxRectangle width="190" height="55" as="alternateBounds" />
          </mxGeometry>
        </mxCell>
        <mxCell id="dF0Taw-JzMB2I85L5e73-35" value="" style="shape=partialRectangle;html=1;whiteSpace=wrap;connectable=0;strokeColor=inherit;overflow=hidden;fillColor=none;top=0;left=0;bottom=0;right=0;pointerEvents=1;fontSize=16;" vertex="1" parent="dF0Taw-JzMB2I85L5e73-32">
          <mxGeometry x="790" width="210" height="55" as="geometry">
            <mxRectangle width="210" height="55" as="alternateBounds" />
          </mxGeometry>
        </mxCell>
        <mxCell id="dF0Taw-JzMB2I85L5e73-36" value="" style="shape=tableRow;horizontal=0;startSize=0;swimlaneHead=0;swimlaneBody=0;strokeColor=inherit;top=0;left=0;bottom=0;right=0;collapsible=0;dropTarget=0;fillColor=none;points=[[0,0.5],[1,0.5]];portConstraint=eastwest;fontSize=16;" vertex="1" parent="dF0Taw-JzMB2I85L5e73-15">
          <mxGeometry y="318" width="1000" height="55" as="geometry" />
        </mxCell>
        <mxCell id="dF0Taw-JzMB2I85L5e73-124" value="5" style="shape=partialRectangle;html=1;whiteSpace=wrap;connectable=0;strokeColor=inherit;overflow=hidden;fillColor=none;top=0;left=0;bottom=0;right=0;pointerEvents=1;fontSize=16;" vertex="1" parent="dF0Taw-JzMB2I85L5e73-36">
          <mxGeometry width="70" height="55" as="geometry">
            <mxRectangle width="70" height="55" as="alternateBounds" />
          </mxGeometry>
        </mxCell>
        <mxCell id="dF0Taw-JzMB2I85L5e73-113" style="shape=partialRectangle;html=1;whiteSpace=wrap;connectable=0;strokeColor=inherit;overflow=hidden;fillColor=none;top=0;left=0;bottom=0;right=0;pointerEvents=1;fontSize=16;" vertex="1" parent="dF0Taw-JzMB2I85L5e73-36">
          <mxGeometry x="70" width="90" height="55" as="geometry">
            <mxRectangle width="90" height="55" as="alternateBounds" />
          </mxGeometry>
        </mxCell>
        <mxCell id="dF0Taw-JzMB2I85L5e73-37" value="" style="shape=partialRectangle;html=1;whiteSpace=wrap;connectable=0;strokeColor=inherit;overflow=hidden;fillColor=none;top=0;left=0;bottom=0;right=0;pointerEvents=1;fontSize=16;" vertex="1" parent="dF0Taw-JzMB2I85L5e73-36">
          <mxGeometry x="160" width="230" height="55" as="geometry">
            <mxRectangle width="230" height="55" as="alternateBounds" />
          </mxGeometry>
        </mxCell>
        <mxCell id="dF0Taw-JzMB2I85L5e73-38" value="" style="shape=partialRectangle;html=1;whiteSpace=wrap;connectable=0;strokeColor=inherit;overflow=hidden;fillColor=none;top=0;left=0;bottom=0;right=0;pointerEvents=1;fontSize=16;" vertex="1" parent="dF0Taw-JzMB2I85L5e73-36">
          <mxGeometry x="390" width="210" height="55" as="geometry">
            <mxRectangle width="210" height="55" as="alternateBounds" />
          </mxGeometry>
        </mxCell>
        <mxCell id="dF0Taw-JzMB2I85L5e73-135" style="shape=partialRectangle;html=1;whiteSpace=wrap;connectable=0;strokeColor=inherit;overflow=hidden;fillColor=none;top=0;left=0;bottom=0;right=0;pointerEvents=1;fontSize=16;" vertex="1" parent="dF0Taw-JzMB2I85L5e73-36">
          <mxGeometry x="600" width="190" height="55" as="geometry">
            <mxRectangle width="190" height="55" as="alternateBounds" />
          </mxGeometry>
        </mxCell>
        <mxCell id="dF0Taw-JzMB2I85L5e73-39" value="" style="shape=partialRectangle;html=1;whiteSpace=wrap;connectable=0;strokeColor=inherit;overflow=hidden;fillColor=none;top=0;left=0;bottom=0;right=0;pointerEvents=1;fontSize=16;" vertex="1" parent="dF0Taw-JzMB2I85L5e73-36">
          <mxGeometry x="790" width="210" height="55" as="geometry">
            <mxRectangle width="210" height="55" as="alternateBounds" />
          </mxGeometry>
        </mxCell>
        <mxCell id="dF0Taw-JzMB2I85L5e73-40" value="" style="shape=tableRow;horizontal=0;startSize=0;swimlaneHead=0;swimlaneBody=0;strokeColor=inherit;top=0;left=0;bottom=0;right=0;collapsible=0;dropTarget=0;fillColor=none;points=[[0,0.5],[1,0.5]];portConstraint=eastwest;fontSize=16;" vertex="1" parent="dF0Taw-JzMB2I85L5e73-15">
          <mxGeometry y="373" width="1000" height="54" as="geometry" />
        </mxCell>
        <mxCell id="dF0Taw-JzMB2I85L5e73-125" value="6" style="shape=partialRectangle;html=1;whiteSpace=wrap;connectable=0;strokeColor=inherit;overflow=hidden;fillColor=none;top=0;left=0;bottom=0;right=0;pointerEvents=1;fontSize=16;" vertex="1" parent="dF0Taw-JzMB2I85L5e73-40">
          <mxGeometry width="70" height="54" as="geometry">
            <mxRectangle width="70" height="54" as="alternateBounds" />
          </mxGeometry>
        </mxCell>
        <mxCell id="dF0Taw-JzMB2I85L5e73-114" style="shape=partialRectangle;html=1;whiteSpace=wrap;connectable=0;strokeColor=inherit;overflow=hidden;fillColor=none;top=0;left=0;bottom=0;right=0;pointerEvents=1;fontSize=16;" vertex="1" parent="dF0Taw-JzMB2I85L5e73-40">
          <mxGeometry x="70" width="90" height="54" as="geometry">
            <mxRectangle width="90" height="54" as="alternateBounds" />
          </mxGeometry>
        </mxCell>
        <mxCell id="dF0Taw-JzMB2I85L5e73-41" value="" style="shape=partialRectangle;html=1;whiteSpace=wrap;connectable=0;strokeColor=inherit;overflow=hidden;fillColor=none;top=0;left=0;bottom=0;right=0;pointerEvents=1;fontSize=16;" vertex="1" parent="dF0Taw-JzMB2I85L5e73-40">
          <mxGeometry x="160" width="230" height="54" as="geometry">
            <mxRectangle width="230" height="54" as="alternateBounds" />
          </mxGeometry>
        </mxCell>
        <mxCell id="dF0Taw-JzMB2I85L5e73-42" value="" style="shape=partialRectangle;html=1;whiteSpace=wrap;connectable=0;strokeColor=inherit;overflow=hidden;fillColor=none;top=0;left=0;bottom=0;right=0;pointerEvents=1;fontSize=16;" vertex="1" parent="dF0Taw-JzMB2I85L5e73-40">
          <mxGeometry x="390" width="210" height="54" as="geometry">
            <mxRectangle width="210" height="54" as="alternateBounds" />
          </mxGeometry>
        </mxCell>
        <mxCell id="dF0Taw-JzMB2I85L5e73-136" style="shape=partialRectangle;html=1;whiteSpace=wrap;connectable=0;strokeColor=inherit;overflow=hidden;fillColor=none;top=0;left=0;bottom=0;right=0;pointerEvents=1;fontSize=16;" vertex="1" parent="dF0Taw-JzMB2I85L5e73-40">
          <mxGeometry x="600" width="190" height="54" as="geometry">
            <mxRectangle width="190" height="54" as="alternateBounds" />
          </mxGeometry>
        </mxCell>
        <mxCell id="dF0Taw-JzMB2I85L5e73-43" value="" style="shape=partialRectangle;html=1;whiteSpace=wrap;connectable=0;strokeColor=inherit;overflow=hidden;fillColor=none;top=0;left=0;bottom=0;right=0;pointerEvents=1;fontSize=16;" vertex="1" parent="dF0Taw-JzMB2I85L5e73-40">
          <mxGeometry x="790" width="210" height="54" as="geometry">
            <mxRectangle width="210" height="54" as="alternateBounds" />
          </mxGeometry>
        </mxCell>
        <mxCell id="dF0Taw-JzMB2I85L5e73-44" value="" style="shape=tableRow;horizontal=0;startSize=0;swimlaneHead=0;swimlaneBody=0;strokeColor=inherit;top=0;left=0;bottom=0;right=0;collapsible=0;dropTarget=0;fillColor=none;points=[[0,0.5],[1,0.5]];portConstraint=eastwest;fontSize=16;" vertex="1" parent="dF0Taw-JzMB2I85L5e73-15">
          <mxGeometry y="427" width="1000" height="55" as="geometry" />
        </mxCell>
        <mxCell id="dF0Taw-JzMB2I85L5e73-126" value="7" style="shape=partialRectangle;html=1;whiteSpace=wrap;connectable=0;strokeColor=inherit;overflow=hidden;fillColor=none;top=0;left=0;bottom=0;right=0;pointerEvents=1;fontSize=16;" vertex="1" parent="dF0Taw-JzMB2I85L5e73-44">
          <mxGeometry width="70" height="55" as="geometry">
            <mxRectangle width="70" height="55" as="alternateBounds" />
          </mxGeometry>
        </mxCell>
        <mxCell id="dF0Taw-JzMB2I85L5e73-115" style="shape=partialRectangle;html=1;whiteSpace=wrap;connectable=0;strokeColor=inherit;overflow=hidden;fillColor=none;top=0;left=0;bottom=0;right=0;pointerEvents=1;fontSize=16;" vertex="1" parent="dF0Taw-JzMB2I85L5e73-44">
          <mxGeometry x="70" width="90" height="55" as="geometry">
            <mxRectangle width="90" height="55" as="alternateBounds" />
          </mxGeometry>
        </mxCell>
        <mxCell id="dF0Taw-JzMB2I85L5e73-45" value="" style="shape=partialRectangle;html=1;whiteSpace=wrap;connectable=0;strokeColor=inherit;overflow=hidden;fillColor=none;top=0;left=0;bottom=0;right=0;pointerEvents=1;fontSize=16;" vertex="1" parent="dF0Taw-JzMB2I85L5e73-44">
          <mxGeometry x="160" width="230" height="55" as="geometry">
            <mxRectangle width="230" height="55" as="alternateBounds" />
          </mxGeometry>
        </mxCell>
        <mxCell id="dF0Taw-JzMB2I85L5e73-46" value="" style="shape=partialRectangle;html=1;whiteSpace=wrap;connectable=0;strokeColor=inherit;overflow=hidden;fillColor=none;top=0;left=0;bottom=0;right=0;pointerEvents=1;fontSize=16;" vertex="1" parent="dF0Taw-JzMB2I85L5e73-44">
          <mxGeometry x="390" width="210" height="55" as="geometry">
            <mxRectangle width="210" height="55" as="alternateBounds" />
          </mxGeometry>
        </mxCell>
        <mxCell id="dF0Taw-JzMB2I85L5e73-137" style="shape=partialRectangle;html=1;whiteSpace=wrap;connectable=0;strokeColor=inherit;overflow=hidden;fillColor=none;top=0;left=0;bottom=0;right=0;pointerEvents=1;fontSize=16;" vertex="1" parent="dF0Taw-JzMB2I85L5e73-44">
          <mxGeometry x="600" width="190" height="55" as="geometry">
            <mxRectangle width="190" height="55" as="alternateBounds" />
          </mxGeometry>
        </mxCell>
        <mxCell id="dF0Taw-JzMB2I85L5e73-47" value="" style="shape=partialRectangle;html=1;whiteSpace=wrap;connectable=0;strokeColor=inherit;overflow=hidden;fillColor=none;top=0;left=0;bottom=0;right=0;pointerEvents=1;fontSize=16;" vertex="1" parent="dF0Taw-JzMB2I85L5e73-44">
          <mxGeometry x="790" width="210" height="55" as="geometry">
            <mxRectangle width="210" height="55" as="alternateBounds" />
          </mxGeometry>
        </mxCell>
        <mxCell id="dF0Taw-JzMB2I85L5e73-48" value="" style="shape=tableRow;horizontal=0;startSize=0;swimlaneHead=0;swimlaneBody=0;strokeColor=inherit;top=0;left=0;bottom=0;right=0;collapsible=0;dropTarget=0;fillColor=none;points=[[0,0.5],[1,0.5]];portConstraint=eastwest;fontSize=16;" vertex="1" parent="dF0Taw-JzMB2I85L5e73-15">
          <mxGeometry y="482" width="1000" height="55" as="geometry" />
        </mxCell>
        <mxCell id="dF0Taw-JzMB2I85L5e73-127" value="8" style="shape=partialRectangle;html=1;whiteSpace=wrap;connectable=0;strokeColor=inherit;overflow=hidden;fillColor=none;top=0;left=0;bottom=0;right=0;pointerEvents=1;fontSize=16;" vertex="1" parent="dF0Taw-JzMB2I85L5e73-48">
          <mxGeometry width="70" height="55" as="geometry">
            <mxRectangle width="70" height="55" as="alternateBounds" />
          </mxGeometry>
        </mxCell>
        <mxCell id="dF0Taw-JzMB2I85L5e73-116" style="shape=partialRectangle;html=1;whiteSpace=wrap;connectable=0;strokeColor=inherit;overflow=hidden;fillColor=none;top=0;left=0;bottom=0;right=0;pointerEvents=1;fontSize=16;" vertex="1" parent="dF0Taw-JzMB2I85L5e73-48">
          <mxGeometry x="70" width="90" height="55" as="geometry">
            <mxRectangle width="90" height="55" as="alternateBounds" />
          </mxGeometry>
        </mxCell>
        <mxCell id="dF0Taw-JzMB2I85L5e73-49" value="" style="shape=partialRectangle;html=1;whiteSpace=wrap;connectable=0;strokeColor=inherit;overflow=hidden;fillColor=none;top=0;left=0;bottom=0;right=0;pointerEvents=1;fontSize=16;" vertex="1" parent="dF0Taw-JzMB2I85L5e73-48">
          <mxGeometry x="160" width="230" height="55" as="geometry">
            <mxRectangle width="230" height="55" as="alternateBounds" />
          </mxGeometry>
        </mxCell>
        <mxCell id="dF0Taw-JzMB2I85L5e73-50" value="" style="shape=partialRectangle;html=1;whiteSpace=wrap;connectable=0;strokeColor=inherit;overflow=hidden;fillColor=none;top=0;left=0;bottom=0;right=0;pointerEvents=1;fontSize=16;" vertex="1" parent="dF0Taw-JzMB2I85L5e73-48">
          <mxGeometry x="390" width="210" height="55" as="geometry">
            <mxRectangle width="210" height="55" as="alternateBounds" />
          </mxGeometry>
        </mxCell>
        <mxCell id="dF0Taw-JzMB2I85L5e73-138" style="shape=partialRectangle;html=1;whiteSpace=wrap;connectable=0;strokeColor=inherit;overflow=hidden;fillColor=none;top=0;left=0;bottom=0;right=0;pointerEvents=1;fontSize=16;" vertex="1" parent="dF0Taw-JzMB2I85L5e73-48">
          <mxGeometry x="600" width="190" height="55" as="geometry">
            <mxRectangle width="190" height="55" as="alternateBounds" />
          </mxGeometry>
        </mxCell>
        <mxCell id="dF0Taw-JzMB2I85L5e73-51" value="" style="shape=partialRectangle;html=1;whiteSpace=wrap;connectable=0;strokeColor=inherit;overflow=hidden;fillColor=none;top=0;left=0;bottom=0;right=0;pointerEvents=1;fontSize=16;" vertex="1" parent="dF0Taw-JzMB2I85L5e73-48">
          <mxGeometry x="790" width="210" height="55" as="geometry">
            <mxRectangle width="210" height="55" as="alternateBounds" />
          </mxGeometry>
        </mxCell>
        <mxCell id="dF0Taw-JzMB2I85L5e73-52" value="" style="shape=tableRow;horizontal=0;startSize=0;swimlaneHead=0;swimlaneBody=0;strokeColor=inherit;top=0;left=0;bottom=0;right=0;collapsible=0;dropTarget=0;fillColor=none;points=[[0,0.5],[1,0.5]];portConstraint=eastwest;fontSize=16;" vertex="1" parent="dF0Taw-JzMB2I85L5e73-15">
          <mxGeometry y="537" width="1000" height="55" as="geometry" />
        </mxCell>
        <mxCell id="dF0Taw-JzMB2I85L5e73-128" value="9" style="shape=partialRectangle;html=1;whiteSpace=wrap;connectable=0;strokeColor=inherit;overflow=hidden;fillColor=none;top=0;left=0;bottom=0;right=0;pointerEvents=1;fontSize=16;" vertex="1" parent="dF0Taw-JzMB2I85L5e73-52">
          <mxGeometry width="70" height="55" as="geometry">
            <mxRectangle width="70" height="55" as="alternateBounds" />
          </mxGeometry>
        </mxCell>
        <mxCell id="dF0Taw-JzMB2I85L5e73-117" style="shape=partialRectangle;html=1;whiteSpace=wrap;connectable=0;strokeColor=inherit;overflow=hidden;fillColor=none;top=0;left=0;bottom=0;right=0;pointerEvents=1;fontSize=16;" vertex="1" parent="dF0Taw-JzMB2I85L5e73-52">
          <mxGeometry x="70" width="90" height="55" as="geometry">
            <mxRectangle width="90" height="55" as="alternateBounds" />
          </mxGeometry>
        </mxCell>
        <mxCell id="dF0Taw-JzMB2I85L5e73-53" value="" style="shape=partialRectangle;html=1;whiteSpace=wrap;connectable=0;strokeColor=inherit;overflow=hidden;fillColor=none;top=0;left=0;bottom=0;right=0;pointerEvents=1;fontSize=16;" vertex="1" parent="dF0Taw-JzMB2I85L5e73-52">
          <mxGeometry x="160" width="230" height="55" as="geometry">
            <mxRectangle width="230" height="55" as="alternateBounds" />
          </mxGeometry>
        </mxCell>
        <mxCell id="dF0Taw-JzMB2I85L5e73-54" value="" style="shape=partialRectangle;html=1;whiteSpace=wrap;connectable=0;strokeColor=inherit;overflow=hidden;fillColor=none;top=0;left=0;bottom=0;right=0;pointerEvents=1;fontSize=16;" vertex="1" parent="dF0Taw-JzMB2I85L5e73-52">
          <mxGeometry x="390" width="210" height="55" as="geometry">
            <mxRectangle width="210" height="55" as="alternateBounds" />
          </mxGeometry>
        </mxCell>
        <mxCell id="dF0Taw-JzMB2I85L5e73-139" style="shape=partialRectangle;html=1;whiteSpace=wrap;connectable=0;strokeColor=inherit;overflow=hidden;fillColor=none;top=0;left=0;bottom=0;right=0;pointerEvents=1;fontSize=16;" vertex="1" parent="dF0Taw-JzMB2I85L5e73-52">
          <mxGeometry x="600" width="190" height="55" as="geometry">
            <mxRectangle width="190" height="55" as="alternateBounds" />
          </mxGeometry>
        </mxCell>
        <mxCell id="dF0Taw-JzMB2I85L5e73-55" value="" style="shape=partialRectangle;html=1;whiteSpace=wrap;connectable=0;strokeColor=inherit;overflow=hidden;fillColor=none;top=0;left=0;bottom=0;right=0;pointerEvents=1;fontSize=16;" vertex="1" parent="dF0Taw-JzMB2I85L5e73-52">
          <mxGeometry x="790" width="210" height="55" as="geometry">
            <mxRectangle width="210" height="55" as="alternateBounds" />
          </mxGeometry>
        </mxCell>
        <mxCell id="dF0Taw-JzMB2I85L5e73-56" value="" style="shape=tableRow;horizontal=0;startSize=0;swimlaneHead=0;swimlaneBody=0;strokeColor=inherit;top=0;left=0;bottom=0;right=0;collapsible=0;dropTarget=0;fillColor=none;points=[[0,0.5],[1,0.5]];portConstraint=eastwest;fontSize=16;" vertex="1" parent="dF0Taw-JzMB2I85L5e73-15">
          <mxGeometry y="592" width="1000" height="55" as="geometry" />
        </mxCell>
        <mxCell id="dF0Taw-JzMB2I85L5e73-129" value="10" style="shape=partialRectangle;html=1;whiteSpace=wrap;connectable=0;strokeColor=inherit;overflow=hidden;fillColor=none;top=0;left=0;bottom=0;right=0;pointerEvents=1;fontSize=16;" vertex="1" parent="dF0Taw-JzMB2I85L5e73-56">
          <mxGeometry width="70" height="55" as="geometry">
            <mxRectangle width="70" height="55" as="alternateBounds" />
          </mxGeometry>
        </mxCell>
        <mxCell id="dF0Taw-JzMB2I85L5e73-118" style="shape=partialRectangle;html=1;whiteSpace=wrap;connectable=0;strokeColor=inherit;overflow=hidden;fillColor=none;top=0;left=0;bottom=0;right=0;pointerEvents=1;fontSize=16;" vertex="1" parent="dF0Taw-JzMB2I85L5e73-56">
          <mxGeometry x="70" width="90" height="55" as="geometry">
            <mxRectangle width="90" height="55" as="alternateBounds" />
          </mxGeometry>
        </mxCell>
        <mxCell id="dF0Taw-JzMB2I85L5e73-57" value="" style="shape=partialRectangle;html=1;whiteSpace=wrap;connectable=0;strokeColor=inherit;overflow=hidden;fillColor=none;top=0;left=0;bottom=0;right=0;pointerEvents=1;fontSize=16;" vertex="1" parent="dF0Taw-JzMB2I85L5e73-56">
          <mxGeometry x="160" width="230" height="55" as="geometry">
            <mxRectangle width="230" height="55" as="alternateBounds" />
          </mxGeometry>
        </mxCell>
        <mxCell id="dF0Taw-JzMB2I85L5e73-58" value="" style="shape=partialRectangle;html=1;whiteSpace=wrap;connectable=0;strokeColor=inherit;overflow=hidden;fillColor=none;top=0;left=0;bottom=0;right=0;pointerEvents=1;fontSize=16;" vertex="1" parent="dF0Taw-JzMB2I85L5e73-56">
          <mxGeometry x="390" width="210" height="55" as="geometry">
            <mxRectangle width="210" height="55" as="alternateBounds" />
          </mxGeometry>
        </mxCell>
        <mxCell id="dF0Taw-JzMB2I85L5e73-140" style="shape=partialRectangle;html=1;whiteSpace=wrap;connectable=0;strokeColor=inherit;overflow=hidden;fillColor=none;top=0;left=0;bottom=0;right=0;pointerEvents=1;fontSize=16;" vertex="1" parent="dF0Taw-JzMB2I85L5e73-56">
          <mxGeometry x="600" width="190" height="55" as="geometry">
            <mxRectangle width="190" height="55" as="alternateBounds" />
          </mxGeometry>
        </mxCell>
        <mxCell id="dF0Taw-JzMB2I85L5e73-59" value="" style="shape=partialRectangle;html=1;whiteSpace=wrap;connectable=0;strokeColor=inherit;overflow=hidden;fillColor=none;top=0;left=0;bottom=0;right=0;pointerEvents=1;fontSize=16;" vertex="1" parent="dF0Taw-JzMB2I85L5e73-56">
          <mxGeometry x="790" width="210" height="55" as="geometry">
            <mxRectangle width="210" height="55" as="alternateBounds" />
          </mxGeometry>
        </mxCell>
        <mxCell id="dF0Taw-JzMB2I85L5e73-141" value="&lt;div&gt;&lt;font style=&quot;font-size: 18px;&quot;&gt;Back&lt;br&gt;&lt;/font&gt;&lt;/div&gt;&lt;div&gt;&lt;font style=&quot;font-size: 18px;&quot;&gt;(return to menu)&lt;br&gt;&lt;/font&gt;&lt;/div&gt;" style="rounded=0;whiteSpace=wrap;html=1;fillColor=#f8cecc;strokeColor=#b85450;" vertex="1" parent="1">
          <mxGeometry x="50" y="770" width="140" height="60" as="geometry" />
        </mxCell>
        <mxCell id="dF0Taw-JzMB2I85L5e73-143" value="&lt;div&gt;&lt;font style=&quot;font-size: 36px;&quot;&gt;DRAFT&lt;/font&gt;&lt;/div&gt;&lt;div align=&quot;center&quot;&gt;&lt;font style=&quot;font-size: 18px;&quot;&gt;2025-02-02&lt;br&gt;&lt;/font&gt;&lt;/div&gt;" style="text;html=1;align=center;verticalAlign=middle;whiteSpace=wrap;rounded=0;fontColor=#FF0000;" vertex="1" parent="1">
          <mxGeometry x="470" y="10" width="160" height="70" as="geometry" />
        </mxCell>
        <mxCell id="dF0Taw-JzMB2I85L5e73-144" value="&lt;div&gt;&lt;font style=&quot;font-size: 18px; background-color: light-dark(#ffffff, var(--ge-dark-color, #121212));&quot;&gt;This screen is displayed after track selection.&lt;/font&gt;&lt;/div&gt;&lt;div&gt;&lt;font style=&quot;font-size: 18px; background-color: light-dark(#ffffff, var(--ge-dark-color, #121212));&quot;&gt;Users can select any entry and choose to download their ghost before racing.&lt;br&gt;&lt;/font&gt;&lt;/div&gt;" style="text;html=1;align=center;verticalAlign=middle;whiteSpace=wrap;rounded=0;shadow=0;" vertex="1" parent="1">
          <mxGeometry x="340" y="765" width="420" height="70" as="geometry" />
        </mxCell>
        <mxCell id="dF0Taw-JzMB2I85L5e73-145" value="&lt;div&gt;&lt;font style=&quot;font-size: 18px;&quot;&gt;Race!&lt;br&gt;&lt;/font&gt;&lt;/div&gt;&lt;div&gt;&lt;font style=&quot;font-size: 18px;&quot;&gt;(begin driving)&lt;br&gt;&lt;/font&gt;&lt;/div&gt;" style="rounded=0;whiteSpace=wrap;html=1;fillColor=#f8cecc;strokeColor=#b85450;" vertex="1" parent="1">
          <mxGeometry x="910" y="770" width="140" height="60" as="geometry" />
        </mxCell>
      </root>
    </mxGraphModel>
  </diagram>
</mxfile>
